<mxfile host="app.diagrams.net" modified="2024-03-02T22:29:13.058Z" agent="Mozilla/5.0 (Windows NT 10.0; Win64; x64; rv:123.0) Gecko/20100101 Firefox/123.0" etag="GbeZXG1a5Wx3pqujqGaT" version="24.0.0" type="device">
  <diagram id="C5RBs43oDa-KdzZeNtuy" name="Page-1">
    <mxGraphModel dx="2927" dy="2285" grid="1" gridSize="10" guides="1" tooltips="1" connect="1" arrows="1" fold="1" page="1" pageScale="1" pageWidth="827" pageHeight="1169" math="0" shadow="0">
      <root>
        <mxCell id="WIyWlLk6GJQsqaUBKTNV-0" />
        <mxCell id="WIyWlLk6GJQsqaUBKTNV-1" parent="WIyWlLk6GJQsqaUBKTNV-0" />
        <mxCell id="WIyWlLk6GJQsqaUBKTNV-10" value="&lt;div&gt;ORGANIZADO&lt;/div&gt;&lt;div&gt;POR&lt;br&gt;&lt;/div&gt;" style="rhombus;whiteSpace=wrap;html=1;shadow=0;fontFamily=Helvetica;fontSize=12;align=center;strokeWidth=1;spacing=6;spacingTop=-4;" parent="WIyWlLk6GJQsqaUBKTNV-1" vertex="1">
          <mxGeometry x="310" y="120" width="100" height="80" as="geometry" />
        </mxCell>
        <mxCell id="Ov9nX-C1EySLcC5Yc06L-0" value="ATL" style="rounded=0;whiteSpace=wrap;html=1;" vertex="1" parent="WIyWlLk6GJQsqaUBKTNV-1">
          <mxGeometry x="150" y="190" width="120" height="60" as="geometry" />
        </mxCell>
        <mxCell id="Ov9nX-C1EySLcC5Yc06L-1" value="" style="endArrow=none;html=1;rounded=0;entryX=1;entryY=0;entryDx=0;entryDy=0;exitX=0;exitY=0.5;exitDx=0;exitDy=0;" edge="1" parent="WIyWlLk6GJQsqaUBKTNV-1" source="WIyWlLk6GJQsqaUBKTNV-10" target="Ov9nX-C1EySLcC5Yc06L-0">
          <mxGeometry width="50" height="50" relative="1" as="geometry">
            <mxPoint x="390" y="320" as="sourcePoint" />
            <mxPoint x="440" y="270" as="targetPoint" />
          </mxGeometry>
        </mxCell>
        <mxCell id="Ov9nX-C1EySLcC5Yc06L-4" value="1" style="edgeLabel;html=1;align=center;verticalAlign=middle;resizable=0;points=[];" vertex="1" connectable="0" parent="Ov9nX-C1EySLcC5Yc06L-1">
          <mxGeometry x="-0.1556" y="1" relative="1" as="geometry">
            <mxPoint x="-42" y="-11" as="offset" />
          </mxGeometry>
        </mxCell>
        <mxCell id="Ov9nX-C1EySLcC5Yc06L-2" value="TURMA" style="rounded=0;whiteSpace=wrap;html=1;" vertex="1" parent="WIyWlLk6GJQsqaUBKTNV-1">
          <mxGeometry x="490" y="130" width="120" height="60" as="geometry" />
        </mxCell>
        <mxCell id="Ov9nX-C1EySLcC5Yc06L-3" value="" style="endArrow=none;html=1;rounded=0;entryX=1;entryY=0.5;entryDx=0;entryDy=0;exitX=0;exitY=0.5;exitDx=0;exitDy=0;" edge="1" parent="WIyWlLk6GJQsqaUBKTNV-1" source="Ov9nX-C1EySLcC5Yc06L-2" target="WIyWlLk6GJQsqaUBKTNV-10">
          <mxGeometry width="50" height="50" relative="1" as="geometry">
            <mxPoint x="390" y="320" as="sourcePoint" />
            <mxPoint x="440" y="270" as="targetPoint" />
          </mxGeometry>
        </mxCell>
        <mxCell id="Ov9nX-C1EySLcC5Yc06L-5" value="N" style="edgeLabel;html=1;align=center;verticalAlign=middle;resizable=0;points=[];" vertex="1" connectable="0" parent="Ov9nX-C1EySLcC5Yc06L-3">
          <mxGeometry x="-0.475" y="2" relative="1" as="geometry">
            <mxPoint x="11" y="-12" as="offset" />
          </mxGeometry>
        </mxCell>
        <mxCell id="Ov9nX-C1EySLcC5Yc06L-6" value="&lt;u&gt;IDENTIFICADOR&lt;/u&gt;" style="ellipse;whiteSpace=wrap;html=1;" vertex="1" parent="WIyWlLk6GJQsqaUBKTNV-1">
          <mxGeometry x="400" y="10" width="110" height="60" as="geometry" />
        </mxCell>
        <mxCell id="Ov9nX-C1EySLcC5Yc06L-7" value="DESIGNCAO" style="ellipse;whiteSpace=wrap;html=1;" vertex="1" parent="WIyWlLk6GJQsqaUBKTNV-1">
          <mxGeometry x="650" y="10" width="110" height="60" as="geometry" />
        </mxCell>
        <mxCell id="Ov9nX-C1EySLcC5Yc06L-8" value="ANO LETIVO" style="ellipse;whiteSpace=wrap;html=1;" vertex="1" parent="WIyWlLk6GJQsqaUBKTNV-1">
          <mxGeometry x="520" y="10" width="110" height="60" as="geometry" />
        </mxCell>
        <mxCell id="Ov9nX-C1EySLcC5Yc06L-9" value="" style="endArrow=none;html=1;rounded=0;" edge="1" parent="WIyWlLk6GJQsqaUBKTNV-1" target="Ov9nX-C1EySLcC5Yc06L-6">
          <mxGeometry width="50" height="50" relative="1" as="geometry">
            <mxPoint x="490" y="130" as="sourcePoint" />
            <mxPoint x="540" y="80" as="targetPoint" />
          </mxGeometry>
        </mxCell>
        <mxCell id="Ov9nX-C1EySLcC5Yc06L-10" value="" style="endArrow=none;html=1;rounded=0;entryX=0;entryY=1;entryDx=0;entryDy=0;" edge="1" parent="WIyWlLk6GJQsqaUBKTNV-1" target="Ov9nX-C1EySLcC5Yc06L-7">
          <mxGeometry width="50" height="50" relative="1" as="geometry">
            <mxPoint x="610" y="130" as="sourcePoint" />
            <mxPoint x="660" y="80" as="targetPoint" />
          </mxGeometry>
        </mxCell>
        <mxCell id="Ov9nX-C1EySLcC5Yc06L-11" value="" style="endArrow=none;html=1;rounded=0;entryX=0.5;entryY=1;entryDx=0;entryDy=0;" edge="1" parent="WIyWlLk6GJQsqaUBKTNV-1" target="Ov9nX-C1EySLcC5Yc06L-8">
          <mxGeometry width="50" height="50" relative="1" as="geometry">
            <mxPoint x="550" y="130" as="sourcePoint" />
            <mxPoint x="600" y="80" as="targetPoint" />
          </mxGeometry>
        </mxCell>
        <mxCell id="Ov9nX-C1EySLcC5Yc06L-14" value="&lt;div&gt;NUMERO MAXIMO&lt;/div&gt;&lt;div&gt;ALUNOS&lt;/div&gt;&lt;div&gt;&lt;br&gt;&lt;/div&gt;" style="ellipse;whiteSpace=wrap;html=1;" vertex="1" parent="WIyWlLk6GJQsqaUBKTNV-1">
          <mxGeometry x="700" y="120" width="120" height="80" as="geometry" />
        </mxCell>
        <mxCell id="Ov9nX-C1EySLcC5Yc06L-15" value="" style="endArrow=none;html=1;rounded=0;entryX=1;entryY=0.5;entryDx=0;entryDy=0;exitX=0;exitY=0.5;exitDx=0;exitDy=0;" edge="1" parent="WIyWlLk6GJQsqaUBKTNV-1" source="Ov9nX-C1EySLcC5Yc06L-14" target="Ov9nX-C1EySLcC5Yc06L-2">
          <mxGeometry width="50" height="50" relative="1" as="geometry">
            <mxPoint x="660" y="270" as="sourcePoint" />
            <mxPoint x="710" y="220" as="targetPoint" />
          </mxGeometry>
        </mxCell>
        <mxCell id="Ov9nX-C1EySLcC5Yc06L-16" value="ATIVIDADES" style="rounded=0;whiteSpace=wrap;html=1;" vertex="1" parent="WIyWlLk6GJQsqaUBKTNV-1">
          <mxGeometry x="490" y="410" width="120" height="60" as="geometry" />
        </mxCell>
        <mxCell id="Ov9nX-C1EySLcC5Yc06L-19" value="TEM" style="rhombus;whiteSpace=wrap;html=1;shadow=0;fontFamily=Helvetica;fontSize=12;align=center;strokeWidth=1;spacing=6;spacingTop=-4;" vertex="1" parent="WIyWlLk6GJQsqaUBKTNV-1">
          <mxGeometry x="500" y="270" width="100" height="80" as="geometry" />
        </mxCell>
        <mxCell id="Ov9nX-C1EySLcC5Yc06L-20" value="" style="endArrow=none;html=1;rounded=0;entryX=0.5;entryY=1;entryDx=0;entryDy=0;" edge="1" parent="WIyWlLk6GJQsqaUBKTNV-1" target="Ov9nX-C1EySLcC5Yc06L-2">
          <mxGeometry width="50" height="50" relative="1" as="geometry">
            <mxPoint x="550" y="270" as="sourcePoint" />
            <mxPoint x="600" y="220" as="targetPoint" />
          </mxGeometry>
        </mxCell>
        <mxCell id="Ov9nX-C1EySLcC5Yc06L-58" value="1" style="edgeLabel;html=1;align=center;verticalAlign=middle;resizable=0;points=[];" vertex="1" connectable="0" parent="Ov9nX-C1EySLcC5Yc06L-20">
          <mxGeometry x="0.1985" relative="1" as="geometry">
            <mxPoint x="-10" y="-22" as="offset" />
          </mxGeometry>
        </mxCell>
        <mxCell id="Ov9nX-C1EySLcC5Yc06L-21" value="" style="endArrow=none;html=1;rounded=0;entryX=0.5;entryY=1;entryDx=0;entryDy=0;" edge="1" parent="WIyWlLk6GJQsqaUBKTNV-1" target="Ov9nX-C1EySLcC5Yc06L-19">
          <mxGeometry width="50" height="50" relative="1" as="geometry">
            <mxPoint x="550" y="410" as="sourcePoint" />
            <mxPoint x="600" y="360" as="targetPoint" />
          </mxGeometry>
        </mxCell>
        <mxCell id="Ov9nX-C1EySLcC5Yc06L-59" value="N" style="edgeLabel;html=1;align=center;verticalAlign=middle;resizable=0;points=[];" vertex="1" connectable="0" parent="Ov9nX-C1EySLcC5Yc06L-21">
          <mxGeometry x="-0.1078" y="-1" relative="1" as="geometry">
            <mxPoint x="-11" y="17" as="offset" />
          </mxGeometry>
        </mxCell>
        <mxCell id="Ov9nX-C1EySLcC5Yc06L-22" value="IDENTIFICADOR" style="ellipse;whiteSpace=wrap;html=1;" vertex="1" parent="WIyWlLk6GJQsqaUBKTNV-1">
          <mxGeometry x="390" y="560" width="100" height="60" as="geometry" />
        </mxCell>
        <mxCell id="Ov9nX-C1EySLcC5Yc06L-23" value="DESIGNACAO" style="ellipse;whiteSpace=wrap;html=1;" vertex="1" parent="WIyWlLk6GJQsqaUBKTNV-1">
          <mxGeometry x="640" y="560" width="110" height="60" as="geometry" />
        </mxCell>
        <mxCell id="Ov9nX-C1EySLcC5Yc06L-24" value="CUSTO" style="ellipse;whiteSpace=wrap;html=1;" vertex="1" parent="WIyWlLk6GJQsqaUBKTNV-1">
          <mxGeometry x="690" y="290" width="110" height="60" as="geometry" />
        </mxCell>
        <mxCell id="Ov9nX-C1EySLcC5Yc06L-26" value="" style="endArrow=none;html=1;rounded=0;entryX=0;entryY=1;entryDx=0;entryDy=0;" edge="1" parent="WIyWlLk6GJQsqaUBKTNV-1" target="Ov9nX-C1EySLcC5Yc06L-24">
          <mxGeometry width="50" height="50" relative="1" as="geometry">
            <mxPoint x="610" y="410" as="sourcePoint" />
            <mxPoint x="660" y="360" as="targetPoint" />
          </mxGeometry>
        </mxCell>
        <mxCell id="Ov9nX-C1EySLcC5Yc06L-28" value="" style="endArrow=none;html=1;rounded=0;entryX=0;entryY=1;entryDx=0;entryDy=0;exitX=1;exitY=0;exitDx=0;exitDy=0;" edge="1" parent="WIyWlLk6GJQsqaUBKTNV-1" source="Ov9nX-C1EySLcC5Yc06L-22" target="Ov9nX-C1EySLcC5Yc06L-16">
          <mxGeometry width="50" height="50" relative="1" as="geometry">
            <mxPoint x="380" y="500" as="sourcePoint" />
            <mxPoint x="430" y="450" as="targetPoint" />
          </mxGeometry>
        </mxCell>
        <mxCell id="Ov9nX-C1EySLcC5Yc06L-29" value="PROFESSOR" style="rounded=0;whiteSpace=wrap;html=1;" vertex="1" parent="WIyWlLk6GJQsqaUBKTNV-1">
          <mxGeometry x="10" y="290" width="120" height="60" as="geometry" />
        </mxCell>
        <mxCell id="Ov9nX-C1EySLcC5Yc06L-30" value="TEM" style="rhombus;whiteSpace=wrap;html=1;shadow=0;fontFamily=Helvetica;fontSize=12;align=center;strokeWidth=1;spacing=6;spacingTop=-4;direction=south;" vertex="1" parent="WIyWlLk6GJQsqaUBKTNV-1">
          <mxGeometry x="827" y="210" width="100" height="100" as="geometry" />
        </mxCell>
        <mxCell id="Ov9nX-C1EySLcC5Yc06L-31" value="" style="endArrow=none;html=1;rounded=0;entryX=0.5;entryY=1;entryDx=0;entryDy=0;exitX=0.5;exitY=0;exitDx=0;exitDy=0;" edge="1" parent="WIyWlLk6GJQsqaUBKTNV-1" source="Ov9nX-C1EySLcC5Yc06L-69" target="Ov9nX-C1EySLcC5Yc06L-43">
          <mxGeometry width="50" height="50" relative="1" as="geometry">
            <mxPoint x="1090" y="160" as="sourcePoint" />
            <mxPoint x="1140" y="110" as="targetPoint" />
          </mxGeometry>
        </mxCell>
        <mxCell id="Ov9nX-C1EySLcC5Yc06L-32" value="" style="endArrow=none;html=1;rounded=0;entryX=0;entryY=1;entryDx=0;entryDy=0;" edge="1" parent="WIyWlLk6GJQsqaUBKTNV-1" target="Ov9nX-C1EySLcC5Yc06L-35">
          <mxGeometry width="50" height="50" relative="1" as="geometry">
            <mxPoint x="927" y="260" as="sourcePoint" />
            <mxPoint x="977" y="210" as="targetPoint" />
          </mxGeometry>
        </mxCell>
        <mxCell id="Ov9nX-C1EySLcC5Yc06L-33" value="" style="endArrow=none;html=1;rounded=0;exitX=0;exitY=0.5;exitDx=0;exitDy=0;" edge="1" parent="WIyWlLk6GJQsqaUBKTNV-1" source="Ov9nX-C1EySLcC5Yc06L-23">
          <mxGeometry width="50" height="50" relative="1" as="geometry">
            <mxPoint x="560" y="520" as="sourcePoint" />
            <mxPoint x="610" y="470" as="targetPoint" />
          </mxGeometry>
        </mxCell>
        <mxCell id="Ov9nX-C1EySLcC5Yc06L-34" value="" style="endArrow=none;html=1;rounded=0;entryX=1;entryY=1;entryDx=0;entryDy=0;exitX=0.5;exitY=1;exitDx=0;exitDy=0;" edge="1" parent="WIyWlLk6GJQsqaUBKTNV-1" source="Ov9nX-C1EySLcC5Yc06L-30" target="Ov9nX-C1EySLcC5Yc06L-2">
          <mxGeometry width="50" height="50" relative="1" as="geometry">
            <mxPoint x="510" y="320" as="sourcePoint" />
            <mxPoint x="560" y="270" as="targetPoint" />
          </mxGeometry>
        </mxCell>
        <mxCell id="Ov9nX-C1EySLcC5Yc06L-53" value="1" style="edgeLabel;html=1;align=center;verticalAlign=middle;resizable=0;points=[];" vertex="1" connectable="0" parent="Ov9nX-C1EySLcC5Yc06L-34">
          <mxGeometry x="0.6332" y="4" relative="1" as="geometry">
            <mxPoint x="-39" y="-7" as="offset" />
          </mxGeometry>
        </mxCell>
        <mxCell id="Ov9nX-C1EySLcC5Yc06L-35" value="ALUNO" style="rounded=0;whiteSpace=wrap;html=1;" vertex="1" parent="WIyWlLk6GJQsqaUBKTNV-1">
          <mxGeometry x="980" y="150" width="120" height="60" as="geometry" />
        </mxCell>
        <mxCell id="Ov9nX-C1EySLcC5Yc06L-36" value="FREQUENTA" style="rhombus;whiteSpace=wrap;html=1;shadow=0;fontFamily=Helvetica;fontSize=12;align=center;strokeWidth=1;spacing=6;spacingTop=-4;" vertex="1" parent="WIyWlLk6GJQsqaUBKTNV-1">
          <mxGeometry x="990" y="400" width="100" height="80" as="geometry" />
        </mxCell>
        <mxCell id="Ov9nX-C1EySLcC5Yc06L-37" value="" style="endArrow=none;html=1;rounded=0;entryX=0;entryY=0.5;entryDx=0;entryDy=0;exitX=1;exitY=0.5;exitDx=0;exitDy=0;" edge="1" parent="WIyWlLk6GJQsqaUBKTNV-1" source="Ov9nX-C1EySLcC5Yc06L-16" target="Ov9nX-C1EySLcC5Yc06L-36">
          <mxGeometry width="50" height="50" relative="1" as="geometry">
            <mxPoint x="610" y="450" as="sourcePoint" />
            <mxPoint x="660" y="400" as="targetPoint" />
          </mxGeometry>
        </mxCell>
        <mxCell id="Ov9nX-C1EySLcC5Yc06L-41" value="M" style="edgeLabel;html=1;align=center;verticalAlign=middle;resizable=0;points=[];" vertex="1" connectable="0" parent="Ov9nX-C1EySLcC5Yc06L-37">
          <mxGeometry x="-0.7368" y="1" relative="1" as="geometry">
            <mxPoint x="-40" y="-9" as="offset" />
          </mxGeometry>
        </mxCell>
        <mxCell id="Ov9nX-C1EySLcC5Yc06L-38" value="" style="endArrow=none;html=1;rounded=0;entryX=0.5;entryY=1;entryDx=0;entryDy=0;" edge="1" parent="WIyWlLk6GJQsqaUBKTNV-1" target="Ov9nX-C1EySLcC5Yc06L-35">
          <mxGeometry width="50" height="50" relative="1" as="geometry">
            <mxPoint x="1040" y="400" as="sourcePoint" />
            <mxPoint x="1090" y="350" as="targetPoint" />
          </mxGeometry>
        </mxCell>
        <mxCell id="Ov9nX-C1EySLcC5Yc06L-40" value="N" style="edgeLabel;html=1;align=center;verticalAlign=middle;resizable=0;points=[];" vertex="1" connectable="0" parent="Ov9nX-C1EySLcC5Yc06L-38">
          <mxGeometry x="0.8211" relative="1" as="geometry">
            <mxPoint x="-10" y="-7" as="offset" />
          </mxGeometry>
        </mxCell>
        <mxCell id="Ov9nX-C1EySLcC5Yc06L-39" value="" style="endArrow=none;html=1;rounded=0;entryX=0.592;entryY=0.967;entryDx=0;entryDy=0;entryPerimeter=0;exitX=0.59;exitY=0.05;exitDx=0;exitDy=0;exitPerimeter=0;" edge="1" parent="WIyWlLk6GJQsqaUBKTNV-1" source="Ov9nX-C1EySLcC5Yc06L-36" target="Ov9nX-C1EySLcC5Yc06L-35">
          <mxGeometry width="50" height="50" relative="1" as="geometry">
            <mxPoint x="1040" y="405" as="sourcePoint" />
            <mxPoint x="1090" y="355" as="targetPoint" />
          </mxGeometry>
        </mxCell>
        <mxCell id="Ov9nX-C1EySLcC5Yc06L-42" value="NOME" style="ellipse;whiteSpace=wrap;html=1;" vertex="1" parent="WIyWlLk6GJQsqaUBKTNV-1">
          <mxGeometry x="400" y="-440" width="120" height="80" as="geometry" />
        </mxCell>
        <mxCell id="Ov9nX-C1EySLcC5Yc06L-43" value="&lt;div&gt;&lt;u&gt;NUMERO&lt;/u&gt;&lt;/div&gt;&lt;div&gt;&lt;u&gt;CARTAO CIDADAO&lt;br&gt;&lt;/u&gt;&lt;/div&gt;" style="ellipse;whiteSpace=wrap;html=1;" vertex="1" parent="WIyWlLk6GJQsqaUBKTNV-1">
          <mxGeometry x="680" y="-490" width="120" height="80" as="geometry" />
        </mxCell>
        <mxCell id="Ov9nX-C1EySLcC5Yc06L-44" value="MORADA" style="ellipse;whiteSpace=wrap;html=1;" vertex="1" parent="WIyWlLk6GJQsqaUBKTNV-1">
          <mxGeometry x="520" y="-490" width="120" height="80" as="geometry" />
        </mxCell>
        <mxCell id="Ov9nX-C1EySLcC5Yc06L-45" value="DATA NASCIMENTO" style="ellipse;whiteSpace=wrap;html=1;" vertex="1" parent="WIyWlLk6GJQsqaUBKTNV-1">
          <mxGeometry x="760" y="-370" width="120" height="80" as="geometry" />
        </mxCell>
        <mxCell id="Ov9nX-C1EySLcC5Yc06L-48" value="" style="endArrow=none;html=1;rounded=0;entryX=0;entryY=0.5;entryDx=0;entryDy=0;" edge="1" parent="WIyWlLk6GJQsqaUBKTNV-1" target="Ov9nX-C1EySLcC5Yc06L-50">
          <mxGeometry width="50" height="50" relative="1" as="geometry">
            <mxPoint x="130" y="320" as="sourcePoint" />
            <mxPoint x="180" y="270" as="targetPoint" />
          </mxGeometry>
        </mxCell>
        <mxCell id="Ov9nX-C1EySLcC5Yc06L-57" value="N" style="edgeLabel;html=1;align=center;verticalAlign=middle;resizable=0;points=[];" vertex="1" connectable="0" parent="Ov9nX-C1EySLcC5Yc06L-48">
          <mxGeometry x="-0.4034" y="-1" relative="1" as="geometry">
            <mxPoint x="-11" y="-11" as="offset" />
          </mxGeometry>
        </mxCell>
        <mxCell id="Ov9nX-C1EySLcC5Yc06L-50" value="TEM" style="rhombus;whiteSpace=wrap;html=1;shadow=0;fontFamily=Helvetica;fontSize=12;align=center;strokeWidth=1;spacing=6;spacingTop=-4;" vertex="1" parent="WIyWlLk6GJQsqaUBKTNV-1">
          <mxGeometry x="200" y="280" width="100" height="80" as="geometry" />
        </mxCell>
        <mxCell id="Ov9nX-C1EySLcC5Yc06L-51" value="" style="endArrow=none;html=1;rounded=0;entryX=0;entryY=1;entryDx=0;entryDy=0;" edge="1" parent="WIyWlLk6GJQsqaUBKTNV-1" target="Ov9nX-C1EySLcC5Yc06L-2">
          <mxGeometry width="50" height="50" relative="1" as="geometry">
            <mxPoint x="300" y="320" as="sourcePoint" />
            <mxPoint x="350" y="270" as="targetPoint" />
          </mxGeometry>
        </mxCell>
        <mxCell id="Ov9nX-C1EySLcC5Yc06L-60" value="&lt;div&gt;CONTACTO&lt;/div&gt;&lt;div&gt;TELEFONICO&lt;br&gt;&lt;/div&gt;" style="ellipse;whiteSpace=wrap;html=1;" vertex="1" parent="WIyWlLk6GJQsqaUBKTNV-1">
          <mxGeometry x="120" y="480" width="120" height="80" as="geometry" />
        </mxCell>
        <mxCell id="Ov9nX-C1EySLcC5Yc06L-61" value="EMAIL" style="ellipse;whiteSpace=wrap;html=1;" vertex="1" parent="WIyWlLk6GJQsqaUBKTNV-1">
          <mxGeometry x="-30" y="480" width="120" height="80" as="geometry" />
        </mxCell>
        <mxCell id="Ov9nX-C1EySLcC5Yc06L-62" value="&lt;div&gt;&lt;u&gt;NUMERO&lt;/u&gt;&lt;/div&gt;&lt;div&gt;&lt;u&gt;FUNCIONARIO&lt;br&gt;&lt;/u&gt;&lt;/div&gt;" style="ellipse;whiteSpace=wrap;html=1;" vertex="1" parent="WIyWlLk6GJQsqaUBKTNV-1">
          <mxGeometry x="-150" y="430" width="120" height="80" as="geometry" />
        </mxCell>
        <mxCell id="Ov9nX-C1EySLcC5Yc06L-65" value="É" style="triangle;whiteSpace=wrap;html=1;rotation=-90;labelPosition=center;verticalLabelPosition=middle;align=center;verticalAlign=middle;textDirection=vertical-lr;" vertex="1" parent="WIyWlLk6GJQsqaUBKTNV-1">
          <mxGeometry x="560" y="-220" width="60" height="80" as="geometry" />
        </mxCell>
        <mxCell id="Ov9nX-C1EySLcC5Yc06L-66" value="" style="endArrow=none;html=1;rounded=0;entryX=-0.083;entryY=0.04;entryDx=0;entryDy=0;entryPerimeter=0;" edge="1" parent="WIyWlLk6GJQsqaUBKTNV-1" target="Ov9nX-C1EySLcC5Yc06L-65">
          <mxGeometry width="50" height="50" relative="1" as="geometry">
            <mxPoint x="10" y="290" as="sourcePoint" />
            <mxPoint x="210" y="-120" as="targetPoint" />
          </mxGeometry>
        </mxCell>
        <mxCell id="Ov9nX-C1EySLcC5Yc06L-67" value="" style="endArrow=none;html=1;rounded=0;entryX=0;entryY=0.75;entryDx=0;entryDy=0;exitX=0;exitY=0;exitDx=0;exitDy=0;" edge="1" parent="WIyWlLk6GJQsqaUBKTNV-1" source="Ov9nX-C1EySLcC5Yc06L-35" target="Ov9nX-C1EySLcC5Yc06L-65">
          <mxGeometry width="50" height="50" relative="1" as="geometry">
            <mxPoint x="790" y="180" as="sourcePoint" />
            <mxPoint x="840" y="130" as="targetPoint" />
          </mxGeometry>
        </mxCell>
        <mxCell id="Ov9nX-C1EySLcC5Yc06L-69" value="PESSOA" style="rounded=0;whiteSpace=wrap;html=1;" vertex="1" parent="WIyWlLk6GJQsqaUBKTNV-1">
          <mxGeometry x="530" y="-320" width="120" height="60" as="geometry" />
        </mxCell>
        <mxCell id="Ov9nX-C1EySLcC5Yc06L-70" value="" style="endArrow=none;html=1;rounded=0;entryX=0.5;entryY=1;entryDx=0;entryDy=0;exitX=1;exitY=0.5;exitDx=0;exitDy=0;" edge="1" parent="WIyWlLk6GJQsqaUBKTNV-1" source="Ov9nX-C1EySLcC5Yc06L-65" target="Ov9nX-C1EySLcC5Yc06L-69">
          <mxGeometry width="50" height="50" relative="1" as="geometry">
            <mxPoint x="790" y="-40" as="sourcePoint" />
            <mxPoint x="840" y="-90" as="targetPoint" />
          </mxGeometry>
        </mxCell>
        <mxCell id="Ov9nX-C1EySLcC5Yc06L-71" value="" style="endArrow=none;html=1;rounded=0;entryX=0.5;entryY=1;entryDx=0;entryDy=0;exitX=0;exitY=0;exitDx=0;exitDy=0;" edge="1" parent="WIyWlLk6GJQsqaUBKTNV-1" source="Ov9nX-C1EySLcC5Yc06L-69" target="Ov9nX-C1EySLcC5Yc06L-42">
          <mxGeometry width="50" height="50" relative="1" as="geometry">
            <mxPoint x="790" y="-100" as="sourcePoint" />
            <mxPoint x="840" y="-150" as="targetPoint" />
          </mxGeometry>
        </mxCell>
        <mxCell id="Ov9nX-C1EySLcC5Yc06L-72" value="" style="endArrow=none;html=1;rounded=0;entryX=0.5;entryY=1;entryDx=0;entryDy=0;exitX=0.25;exitY=0;exitDx=0;exitDy=0;" edge="1" parent="WIyWlLk6GJQsqaUBKTNV-1" source="Ov9nX-C1EySLcC5Yc06L-69" target="Ov9nX-C1EySLcC5Yc06L-44">
          <mxGeometry width="50" height="50" relative="1" as="geometry">
            <mxPoint x="790" y="-100" as="sourcePoint" />
            <mxPoint x="840" y="-150" as="targetPoint" />
          </mxGeometry>
        </mxCell>
        <mxCell id="Ov9nX-C1EySLcC5Yc06L-73" value="" style="endArrow=none;html=1;rounded=0;exitX=1;exitY=0;exitDx=0;exitDy=0;entryX=0;entryY=0.5;entryDx=0;entryDy=0;" edge="1" parent="WIyWlLk6GJQsqaUBKTNV-1" source="Ov9nX-C1EySLcC5Yc06L-69" target="Ov9nX-C1EySLcC5Yc06L-45">
          <mxGeometry width="50" height="50" relative="1" as="geometry">
            <mxPoint x="790" y="-160" as="sourcePoint" />
            <mxPoint x="840" y="-210" as="targetPoint" />
          </mxGeometry>
        </mxCell>
        <mxCell id="Ov9nX-C1EySLcC5Yc06L-75" value="Disjoint" style="text;html=1;align=center;verticalAlign=middle;resizable=0;points=[];autosize=1;strokeColor=none;fillColor=none;" vertex="1" parent="WIyWlLk6GJQsqaUBKTNV-1">
          <mxGeometry x="490" y="-195" width="60" height="30" as="geometry" />
        </mxCell>
        <mxCell id="Ov9nX-C1EySLcC5Yc06L-76" value="" style="endArrow=none;html=1;rounded=0;entryX=0;entryY=1;entryDx=0;entryDy=0;exitX=1;exitY=0;exitDx=0;exitDy=0;" edge="1" parent="WIyWlLk6GJQsqaUBKTNV-1" source="Ov9nX-C1EySLcC5Yc06L-62" target="Ov9nX-C1EySLcC5Yc06L-29">
          <mxGeometry width="50" height="50" relative="1" as="geometry">
            <mxPoint x="-40" y="420" as="sourcePoint" />
            <mxPoint x="-10" y="390" as="targetPoint" />
          </mxGeometry>
        </mxCell>
        <mxCell id="Ov9nX-C1EySLcC5Yc06L-77" value="" style="endArrow=none;html=1;rounded=0;entryX=1;entryY=1;entryDx=0;entryDy=0;exitX=0.5;exitY=0;exitDx=0;exitDy=0;" edge="1" parent="WIyWlLk6GJQsqaUBKTNV-1" source="Ov9nX-C1EySLcC5Yc06L-60" target="Ov9nX-C1EySLcC5Yc06L-29">
          <mxGeometry width="50" height="50" relative="1" as="geometry">
            <mxPoint x="45" y="450" as="sourcePoint" />
            <mxPoint x="95" y="400" as="targetPoint" />
          </mxGeometry>
        </mxCell>
        <mxCell id="Ov9nX-C1EySLcC5Yc06L-78" value="" style="endArrow=none;html=1;rounded=0;entryX=0.5;entryY=1;entryDx=0;entryDy=0;" edge="1" parent="WIyWlLk6GJQsqaUBKTNV-1" target="Ov9nX-C1EySLcC5Yc06L-29">
          <mxGeometry width="50" height="50" relative="1" as="geometry">
            <mxPoint x="40" y="480" as="sourcePoint" />
            <mxPoint x="90" y="430" as="targetPoint" />
          </mxGeometry>
        </mxCell>
        <mxCell id="Ov9nX-C1EySLcC5Yc06L-79" value="TEM" style="rhombus;whiteSpace=wrap;html=1;shadow=0;fontFamily=Helvetica;fontSize=12;align=center;strokeWidth=1;spacing=6;spacingTop=-4;direction=south;" vertex="1" parent="WIyWlLk6GJQsqaUBKTNV-1">
          <mxGeometry x="1070" y="-60" width="100" height="100" as="geometry" />
        </mxCell>
        <mxCell id="Ov9nX-C1EySLcC5Yc06L-80" value="" style="endArrow=none;html=1;rounded=0;entryX=1;entryY=0.5;entryDx=0;entryDy=0;exitX=0.921;exitY=0.022;exitDx=0;exitDy=0;exitPerimeter=0;" edge="1" parent="WIyWlLk6GJQsqaUBKTNV-1" source="Ov9nX-C1EySLcC5Yc06L-35" target="Ov9nX-C1EySLcC5Yc06L-79">
          <mxGeometry width="50" height="50" relative="1" as="geometry">
            <mxPoint x="1100" y="150" as="sourcePoint" />
            <mxPoint x="1150" y="100" as="targetPoint" />
          </mxGeometry>
        </mxCell>
        <mxCell id="Ov9nX-C1EySLcC5Yc06L-81" value="RELACAO" style="rhombus;whiteSpace=wrap;html=1;shadow=0;fontFamily=Helvetica;fontSize=12;align=center;strokeWidth=1;spacing=6;spacingTop=-4;direction=south;" vertex="1" parent="WIyWlLk6GJQsqaUBKTNV-1">
          <mxGeometry x="1241" y="-60" width="100" height="100" as="geometry" />
        </mxCell>
        <mxCell id="Ov9nX-C1EySLcC5Yc06L-82" value="" style="endArrow=none;html=1;rounded=0;entryX=1;entryY=0.5;entryDx=0;entryDy=0;" edge="1" parent="WIyWlLk6GJQsqaUBKTNV-1" target="Ov9nX-C1EySLcC5Yc06L-81">
          <mxGeometry width="50" height="50" relative="1" as="geometry">
            <mxPoint x="1100" y="210" as="sourcePoint" />
            <mxPoint x="1150" y="160" as="targetPoint" />
          </mxGeometry>
        </mxCell>
        <mxCell id="Ov9nX-C1EySLcC5Yc06L-83" value="&lt;div&gt;ENCARREGADO&lt;/div&gt;&lt;div&gt;EDUCACAO&lt;br&gt;&lt;/div&gt;" style="rounded=0;whiteSpace=wrap;html=1;" vertex="1" parent="WIyWlLk6GJQsqaUBKTNV-1">
          <mxGeometry x="1160" y="-210" width="120" height="60" as="geometry" />
        </mxCell>
        <mxCell id="Ov9nX-C1EySLcC5Yc06L-84" value="" style="endArrow=none;html=1;rounded=0;entryX=0;entryY=1;entryDx=0;entryDy=0;exitX=0;exitY=0.5;exitDx=0;exitDy=0;" edge="1" parent="WIyWlLk6GJQsqaUBKTNV-1" source="Ov9nX-C1EySLcC5Yc06L-79" target="Ov9nX-C1EySLcC5Yc06L-83">
          <mxGeometry width="50" height="50" relative="1" as="geometry">
            <mxPoint x="1110" y="-50" as="sourcePoint" />
            <mxPoint x="1160" y="-100" as="targetPoint" />
          </mxGeometry>
        </mxCell>
        <mxCell id="Ov9nX-C1EySLcC5Yc06L-100" value="1" style="edgeLabel;html=1;align=center;verticalAlign=middle;resizable=0;points=[];" vertex="1" connectable="0" parent="Ov9nX-C1EySLcC5Yc06L-84">
          <mxGeometry x="0.4557" y="1" relative="1" as="geometry">
            <mxPoint x="2" y="-24" as="offset" />
          </mxGeometry>
        </mxCell>
        <mxCell id="Ov9nX-C1EySLcC5Yc06L-85" value="" style="endArrow=none;html=1;rounded=0;entryX=1;entryY=1;entryDx=0;entryDy=0;" edge="1" parent="WIyWlLk6GJQsqaUBKTNV-1" target="Ov9nX-C1EySLcC5Yc06L-83">
          <mxGeometry width="50" height="50" relative="1" as="geometry">
            <mxPoint x="1291" y="-60" as="sourcePoint" />
            <mxPoint x="1341" y="-110" as="targetPoint" />
          </mxGeometry>
        </mxCell>
        <mxCell id="Ov9nX-C1EySLcC5Yc06L-86" value="" style="endArrow=none;html=1;rounded=0;entryX=0.5;entryY=1;entryDx=0;entryDy=0;exitX=0;exitY=0;exitDx=0;exitDy=0;" edge="1" parent="WIyWlLk6GJQsqaUBKTNV-1" source="Ov9nX-C1EySLcC5Yc06L-83" target="Ov9nX-C1EySLcC5Yc06L-65">
          <mxGeometry width="50" height="50" relative="1" as="geometry">
            <mxPoint x="890" y="-70" as="sourcePoint" />
            <mxPoint x="940" y="-120" as="targetPoint" />
          </mxGeometry>
        </mxCell>
        <mxCell id="Ov9nX-C1EySLcC5Yc06L-87" value="&lt;div&gt;CONTACTO&lt;/div&gt;&lt;div&gt;TELEFONICO&lt;br&gt;&lt;/div&gt;" style="ellipse;whiteSpace=wrap;html=1;" vertex="1" parent="WIyWlLk6GJQsqaUBKTNV-1">
          <mxGeometry x="1130" y="-360" width="120" height="80" as="geometry" />
        </mxCell>
        <mxCell id="Ov9nX-C1EySLcC5Yc06L-88" value="&lt;u&gt;EMAIL&lt;/u&gt;" style="ellipse;whiteSpace=wrap;html=1;" vertex="1" parent="WIyWlLk6GJQsqaUBKTNV-1">
          <mxGeometry x="1290" y="-360" width="120" height="80" as="geometry" />
        </mxCell>
        <mxCell id="Ov9nX-C1EySLcC5Yc06L-89" value="" style="endArrow=none;html=1;rounded=0;entryX=0.5;entryY=1;entryDx=0;entryDy=0;exitX=0.25;exitY=0;exitDx=0;exitDy=0;" edge="1" parent="WIyWlLk6GJQsqaUBKTNV-1" source="Ov9nX-C1EySLcC5Yc06L-83" target="Ov9nX-C1EySLcC5Yc06L-87">
          <mxGeometry width="50" height="50" relative="1" as="geometry">
            <mxPoint x="1090" y="-10" as="sourcePoint" />
            <mxPoint x="1140" y="-60" as="targetPoint" />
          </mxGeometry>
        </mxCell>
        <mxCell id="Ov9nX-C1EySLcC5Yc06L-90" value="" style="endArrow=none;html=1;rounded=0;entryX=0.5;entryY=1;entryDx=0;entryDy=0;exitX=1;exitY=0;exitDx=0;exitDy=0;" edge="1" parent="WIyWlLk6GJQsqaUBKTNV-1" source="Ov9nX-C1EySLcC5Yc06L-83" target="Ov9nX-C1EySLcC5Yc06L-88">
          <mxGeometry width="50" height="50" relative="1" as="geometry">
            <mxPoint x="1090" y="-10" as="sourcePoint" />
            <mxPoint x="1140" y="-60" as="targetPoint" />
          </mxGeometry>
        </mxCell>
        <mxCell id="Ov9nX-C1EySLcC5Yc06L-91" value="" style="endArrow=none;html=1;rounded=0;" edge="1" parent="WIyWlLk6GJQsqaUBKTNV-1">
          <mxGeometry width="50" height="50" relative="1" as="geometry">
            <mxPoint x="1040" y="150" as="sourcePoint" />
            <mxPoint x="1010" y="40" as="targetPoint" />
          </mxGeometry>
        </mxCell>
        <mxCell id="Ov9nX-C1EySLcC5Yc06L-97" value="N" style="edgeLabel;html=1;align=center;verticalAlign=middle;resizable=0;points=[];" vertex="1" connectable="0" parent="Ov9nX-C1EySLcC5Yc06L-91">
          <mxGeometry x="-0.762" y="-1" relative="1" as="geometry">
            <mxPoint x="-7" y="3" as="offset" />
          </mxGeometry>
        </mxCell>
        <mxCell id="Ov9nX-C1EySLcC5Yc06L-92" value="TEM" style="rhombus;whiteSpace=wrap;html=1;shadow=0;fontFamily=Helvetica;fontSize=12;align=center;strokeWidth=1;spacing=6;spacingTop=-4;direction=south;" vertex="1" parent="WIyWlLk6GJQsqaUBKTNV-1">
          <mxGeometry x="960" y="-60" width="100" height="100" as="geometry" />
        </mxCell>
        <mxCell id="Ov9nX-C1EySLcC5Yc06L-94" value="&lt;div&gt;PESSOA&lt;/div&gt;&lt;div&gt;COM&lt;/div&gt;&lt;div&gt;AUTORIZACAO&lt;br&gt;&lt;/div&gt;" style="rounded=0;whiteSpace=wrap;html=1;" vertex="1" parent="WIyWlLk6GJQsqaUBKTNV-1">
          <mxGeometry x="780" y="-150" width="120" height="60" as="geometry" />
        </mxCell>
        <mxCell id="Ov9nX-C1EySLcC5Yc06L-95" value="" style="endArrow=none;html=1;rounded=0;entryX=0;entryY=0.5;entryDx=0;entryDy=0;exitX=1;exitY=0.5;exitDx=0;exitDy=0;" edge="1" parent="WIyWlLk6GJQsqaUBKTNV-1" source="Ov9nX-C1EySLcC5Yc06L-94" target="Ov9nX-C1EySLcC5Yc06L-92">
          <mxGeometry width="50" height="50" relative="1" as="geometry">
            <mxPoint x="760" y="-30" as="sourcePoint" />
            <mxPoint x="810" y="-80" as="targetPoint" />
          </mxGeometry>
        </mxCell>
        <mxCell id="Ov9nX-C1EySLcC5Yc06L-96" value="" style="endArrow=none;html=1;rounded=0;entryX=-0.003;entryY=0.995;entryDx=0;entryDy=0;entryPerimeter=0;exitX=0;exitY=0.5;exitDx=0;exitDy=0;" edge="1" parent="WIyWlLk6GJQsqaUBKTNV-1" source="Ov9nX-C1EySLcC5Yc06L-94" target="Ov9nX-C1EySLcC5Yc06L-65">
          <mxGeometry width="50" height="50" relative="1" as="geometry">
            <mxPoint x="760" y="-30" as="sourcePoint" />
            <mxPoint x="810" y="-80" as="targetPoint" />
          </mxGeometry>
        </mxCell>
        <mxCell id="Ov9nX-C1EySLcC5Yc06L-98" value="N" style="edgeLabel;html=1;align=center;verticalAlign=middle;resizable=0;points=[];" vertex="1" connectable="0" parent="WIyWlLk6GJQsqaUBKTNV-1">
          <mxGeometry x="1079.9967991967997" y="150.00101230460237" as="geometry">
            <mxPoint x="29" y="-13" as="offset" />
          </mxGeometry>
        </mxCell>
        <mxCell id="Ov9nX-C1EySLcC5Yc06L-99" value="N" style="edgeLabel;html=1;align=center;verticalAlign=middle;resizable=0;points=[];" vertex="1" connectable="0" parent="WIyWlLk6GJQsqaUBKTNV-1">
          <mxGeometry x="1079.9967991967997" y="230.0010123046024" as="geometry">
            <mxPoint x="29" y="-13" as="offset" />
          </mxGeometry>
        </mxCell>
        <mxCell id="Ov9nX-C1EySLcC5Yc06L-102" value="1" style="edgeLabel;html=1;align=center;verticalAlign=middle;resizable=0;points=[];" vertex="1" connectable="0" parent="WIyWlLk6GJQsqaUBKTNV-1">
          <mxGeometry x="910.0043146497637" y="-110.00442241241714" as="geometry">
            <mxPoint y="-19" as="offset" />
          </mxGeometry>
        </mxCell>
        <mxCell id="Ov9nX-C1EySLcC5Yc06L-103" value="1" style="edgeLabel;html=1;align=center;verticalAlign=middle;resizable=0;points=[];" vertex="1" connectable="0" parent="WIyWlLk6GJQsqaUBKTNV-1">
          <mxGeometry x="1220.0043146497637" y="-140.00442241241714" as="geometry">
            <mxPoint x="72" y="-1" as="offset" />
          </mxGeometry>
        </mxCell>
        <mxCell id="Ov9nX-C1EySLcC5Yc06L-104" value="" style="endArrow=none;html=1;rounded=0;" edge="1" parent="WIyWlLk6GJQsqaUBKTNV-1" target="Ov9nX-C1EySLcC5Yc06L-92">
          <mxGeometry width="50" height="50" relative="1" as="geometry">
            <mxPoint x="1050" y="150" as="sourcePoint" />
            <mxPoint x="1020" y="50" as="targetPoint" />
          </mxGeometry>
        </mxCell>
        <mxCell id="Ov9nX-C1EySLcC5Yc06L-106" value="" style="endArrow=none;html=1;rounded=0;exitX=0.872;exitY=-0.015;exitDx=0;exitDy=0;exitPerimeter=0;entryX=0.9;entryY=0.572;entryDx=0;entryDy=0;entryPerimeter=0;" edge="1" parent="WIyWlLk6GJQsqaUBKTNV-1" source="Ov9nX-C1EySLcC5Yc06L-35" target="Ov9nX-C1EySLcC5Yc06L-79">
          <mxGeometry width="50" height="50" relative="1" as="geometry">
            <mxPoint x="1060" y="160" as="sourcePoint" />
            <mxPoint x="1030" y="40" as="targetPoint" />
          </mxGeometry>
        </mxCell>
        <mxCell id="Ov9nX-C1EySLcC5Yc06L-108" value="" style="endArrow=none;html=1;rounded=0;entryX=0.051;entryY=1.072;entryDx=0;entryDy=0;entryPerimeter=0;exitX=0.047;exitY=0.431;exitDx=0;exitDy=0;exitPerimeter=0;" edge="1" parent="WIyWlLk6GJQsqaUBKTNV-1" source="Ov9nX-C1EySLcC5Yc06L-79" target="Ov9nX-C1EySLcC5Yc06L-83">
          <mxGeometry width="50" height="50" relative="1" as="geometry">
            <mxPoint x="1130" y="-60" as="sourcePoint" />
            <mxPoint x="1040" y="50" as="targetPoint" />
          </mxGeometry>
        </mxCell>
        <mxCell id="Ov9nX-C1EySLcC5Yc06L-109" value="" style="endArrow=none;html=1;rounded=0;" edge="1" parent="WIyWlLk6GJQsqaUBKTNV-1">
          <mxGeometry width="50" height="50" relative="1" as="geometry">
            <mxPoint x="1100" y="200" as="sourcePoint" />
            <mxPoint x="1282" y="34" as="targetPoint" />
          </mxGeometry>
        </mxCell>
        <mxCell id="Ov9nX-C1EySLcC5Yc06L-110" value="" style="endArrow=none;html=1;rounded=0;entryX=0.909;entryY=0.998;entryDx=0;entryDy=0;entryPerimeter=0;" edge="1" parent="WIyWlLk6GJQsqaUBKTNV-1" target="Ov9nX-C1EySLcC5Yc06L-83">
          <mxGeometry width="50" height="50" relative="1" as="geometry">
            <mxPoint x="1281" y="-50" as="sourcePoint" />
            <mxPoint x="1270" y="-140" as="targetPoint" />
          </mxGeometry>
        </mxCell>
        <mxCell id="Ov9nX-C1EySLcC5Yc06L-111" value="" style="endArrow=none;html=1;rounded=0;entryX=0.051;entryY=0.574;entryDx=0;entryDy=0;exitX=1;exitY=0.5;exitDx=0;exitDy=0;entryPerimeter=0;" edge="1" parent="WIyWlLk6GJQsqaUBKTNV-1" target="Ov9nX-C1EySLcC5Yc06L-92">
          <mxGeometry width="50" height="50" relative="1" as="geometry">
            <mxPoint x="900" y="-110" as="sourcePoint" />
            <mxPoint x="1010" y="-50" as="targetPoint" />
          </mxGeometry>
        </mxCell>
        <mxCell id="Ov9nX-C1EySLcC5Yc06L-112" value="" style="endArrow=none;html=1;rounded=0;entryX=0;entryY=0.75;entryDx=0;entryDy=0;" edge="1" parent="WIyWlLk6GJQsqaUBKTNV-1" target="Ov9nX-C1EySLcC5Yc06L-35">
          <mxGeometry width="50" height="50" relative="1" as="geometry">
            <mxPoint x="920" y="255" as="sourcePoint" />
            <mxPoint x="973" y="205" as="targetPoint" />
          </mxGeometry>
        </mxCell>
        <mxCell id="Ov9nX-C1EySLcC5Yc06L-113" value="N" style="edgeLabel;html=1;align=center;verticalAlign=middle;resizable=0;points=[];" vertex="1" connectable="0" parent="Ov9nX-C1EySLcC5Yc06L-112">
          <mxGeometry x="0.3378" relative="1" as="geometry">
            <mxPoint x="20" y="5" as="offset" />
          </mxGeometry>
        </mxCell>
        <mxCell id="Ov9nX-C1EySLcC5Yc06L-114" value="" style="endArrow=none;html=1;rounded=0;entryX=1.006;entryY=0.904;entryDx=0;entryDy=0;entryPerimeter=0;exitX=0.457;exitY=0.963;exitDx=0;exitDy=0;exitPerimeter=0;" edge="1" parent="WIyWlLk6GJQsqaUBKTNV-1" source="Ov9nX-C1EySLcC5Yc06L-30" target="Ov9nX-C1EySLcC5Yc06L-2">
          <mxGeometry width="50" height="50" relative="1" as="geometry">
            <mxPoint x="750" y="290" as="sourcePoint" />
            <mxPoint x="810" y="230" as="targetPoint" />
          </mxGeometry>
        </mxCell>
        <mxCell id="Ov9nX-C1EySLcC5Yc06L-116" value="" style="endArrow=none;html=1;rounded=0;entryX=0.11;entryY=0.61;entryDx=0;entryDy=0;entryPerimeter=0;" edge="1" parent="WIyWlLk6GJQsqaUBKTNV-1" target="Ov9nX-C1EySLcC5Yc06L-50">
          <mxGeometry width="50" height="50" relative="1" as="geometry">
            <mxPoint x="130" y="330" as="sourcePoint" />
            <mxPoint x="200" y="330" as="targetPoint" />
          </mxGeometry>
        </mxCell>
        <mxCell id="Ov9nX-C1EySLcC5Yc06L-118" value="" style="endArrow=none;html=1;rounded=0;entryX=-0.008;entryY=0.878;entryDx=0;entryDy=0;entryPerimeter=0;exitX=0.945;exitY=0.432;exitDx=0;exitDy=0;exitPerimeter=0;" edge="1" parent="WIyWlLk6GJQsqaUBKTNV-1" source="Ov9nX-C1EySLcC5Yc06L-50" target="Ov9nX-C1EySLcC5Yc06L-2">
          <mxGeometry width="50" height="50" relative="1" as="geometry">
            <mxPoint x="290" y="320" as="sourcePoint" />
            <mxPoint x="480" y="190" as="targetPoint" />
          </mxGeometry>
        </mxCell>
        <mxCell id="Ov9nX-C1EySLcC5Yc06L-119" value="1" style="edgeLabel;html=1;align=center;verticalAlign=middle;resizable=0;points=[];" vertex="1" connectable="0" parent="Ov9nX-C1EySLcC5Yc06L-118">
          <mxGeometry x="0.8491" relative="1" as="geometry">
            <mxPoint y="-10" as="offset" />
          </mxGeometry>
        </mxCell>
      </root>
    </mxGraphModel>
  </diagram>
</mxfile>
